<?xml version="1.0" encoding="UTF-8"?>
<!-- Created with Inkscape (http://www.inkscape.org/) -->
<svg width="32" height="32" version="1.1" viewBox="0 0 8.4667 8.4667" xml:space="preserve" xmlns="http://www.w3.org/2000/svg"><path d="m3.9575 7.9782c-0.62905-0.04417-1.2325-0.25144-1.7669-0.60691-0.54893-0.3651-0.97766-0.85312-1.2803-1.4574-0.21183-0.42291-0.33028-0.81811-0.38553-1.2863-0.0216-0.18291-0.0214-0.6195 3.7e-4 -0.80908 0.0601-0.52389 0.20603-1.0053 0.42884-1.415 0.36543-0.67182 0.92987-1.217 1.6124-1.5575 0.26016-0.12978 0.45654-0.2009 0.75472-0.27334 0.61304-0.14894 1.1821-0.1502 1.7984-4e-3 0.67484 0.16011 1.388 0.58648 1.8458 1.1036 0.34253 0.38687 0.53402 0.70059 0.70362 1.1527 0.17842 0.47567 0.25916 0.95904 0.24683 1.4776-9e-3 0.37159-0.0489 0.64433-0.14258 0.97026-0.22686 0.78945-0.69615 1.4838-1.3188 1.9513-0.46084 0.346-0.9712 0.57846-1.5117 0.68854-0.30829 0.06279-0.67507 0.08712-0.98516 0.06534zm0.68763-0.44124c-6e-3 -0.0025-0.0161-0.0025-0.0222 0-6e-3 0.0025-1e-3 0.0045 0.0111 0.0045 0.0122 0 0.0173-2e-3 0.0111-0.0045zm0.0666-0.0084c-3e-3 -3e-3 -0.0106-0.0033-0.0171-7.03e-4 -7e-3 0.0028-5e-3 5e-3 5e-3 0.0054 9e-3 3.86e-4 0.0146-0.0017 0.0117-0.0047zm0.0534-0.0089c-3e-3 -3e-3 -0.0106-0.0033-0.0171-7.03e-4 -7e-3 0.0028-5e-3 5e-3 5e-3 0.0054 9e-3 3.87e-4 0.0146-0.0017 0.0117-0.0047zm0.0534-0.0089c-3e-3 -3e-3 -0.0106-0.0033-0.0171-7.03e-4 -7e-3 0.0028-5e-3 5e-3 5e-3 0.0054 9e-3 3.86e-4 0.0146-0.0017 0.0117-0.0047zm0.0534-0.0089c-3e-3 -3e-3 -0.0106-0.0033-0.0171-7.04e-4 -7e-3 0.0028-5e-3 5e-3 5e-3 0.0054 9e-3 3.87e-4 0.0146-0.0017 0.0117-0.0047zm0.0402-0.0094c-6e-3 -0.0025-0.0161-0.0025-0.0223 0-6e-3 0.0025-1e-3 0.0045 0.0111 0.0045 0.0122 0 0.0172-2e-3 0.0111-0.0045zm0.0844-0.01729c-3e-3 -3e-3 -0.0106-0.0033-0.0171-7.03e-4 -7e-3 0.0028-5e-3 5e-3 5e-3 0.0054 9e-3 3.87e-4 0.0146-0.0017 0.0117-0.0047zm0.0356-0.0089c-3e-3 -3e-3 -0.0106-0.0033-0.0171-7.03e-4 -7e-3 0.0028-5e-3 5e-3 5e-3 0.0054 9e-3 3.87e-4 0.0147-0.0017 0.0117-0.0047zm0.0356-0.0089c-3e-3 -3e-3 -0.0106-0.0033-0.0171-7.03e-4 -7e-3 0.0028-5e-3 5e-3 5e-3 0.0054 9e-3 3.87e-4 0.0146-0.0017 0.0117-0.0047zm-0.69264-0.0068c-2e-3 -0.0018-0.10385-5e-3 -0.22624-0.0071-0.1224-0.0021-0.1925-0.0014-0.15578 0.0016 0.074 0.0061 0.38788 0.01056 0.38202 0.0055zm0.72825-0.0021c-3e-3 -3e-3 -0.0106-0.0033-0.0171-7.03e-4 -7e-3 0.0028-5e-3 5e-3 5e-3 0.0054 9e-3 3.87e-4 0.0146-0.0017 0.0117-0.0047zm-0.55838-0.01242c0.0334-0.0049 0.0178-0.0056-0.049-0.0024-0.0538 0.0026-0.0996 0.0062-0.10162 8e-3 -6e-3 0.0058 0.0997 0.0018 0.15058-0.0056zm-0.62384-0.0033c-2e-3 -0.0018-0.0378-0.0054-0.0794-8e-3 -0.046-0.0029-0.0617-0.0021-0.0401 2e-3 0.0377 0.0072 0.1257 0.01159 0.11943 6e-3zm0.76181-0.01398c0.0469-0.0097 5e-3 -0.01052-0.049-9.66e-4 -0.03 0.0053-0.0334 0.0073-0.0134 0.0077 0.0147 3.37e-4 0.0427-0.0027 0.0623-0.0068zm-0.93242-0.0066c-9e-3 -0.0022-0.0226-0.0022-0.0312 0-9e-3 0.0022-2e-3 0.0041 0.0156 0.0041 0.0171 0 0.0241-0.0018 0.0156-0.0041zm-0.0734-0.01167c-0.0147-0.0037-0.0367-0.0068-0.049-0.0068-0.0199 0-0.0194 7.34e-4 4e-3 0.0068 0.0147 0.0037 0.0367 0.0068 0.049 0.0068 0.0199 0 0.0194-7.34e-4 -4e-3 -0.0068zm1.0839 0.0031c-6e-3 -0.0024-0.018-0.0026-0.0267-3.37e-4 -9e-3 0.0023-4e-3 0.0043 0.011 0.0044 0.0147 1.68e-4 0.0218-0.0017 0.0157-0.0041zm0.0534-0.0089c-6e-3 -0.0024-0.018-0.0026-0.0267-3.36e-4 -9e-3 0.0023-4e-3 0.0043 0.011 0.0044 0.0147 1.68e-4 0.0218-0.0017 0.0157-0.0041zm0.47828-0.0031c0.0163-0.01052 2e-3 -0.01052-0.0223 0-0.0117 5e-3 -0.0133 0.0078-4e-3 0.0081 7e-3 2.69e-4 0.0194-0.0034 0.0267-0.0081zm0.0801 0c7e-3 -0.0047 9e-3 -0.0086 4e-3 -0.0086s-0.0149 0.0039-0.0222 0.0086c-7e-3 0.0047-9e-3 0.0086-4e-3 0.0086s0.0149-0.0039 0.0222-0.0086zm-1.7781-0.0059c-6e-3 -0.0025-0.0161-0.0025-0.0223 0-6e-3 0.0025-1e-3 0.0045 0.0111 0.0045 0.0122 0 0.0172-2e-3 0.0111-0.0045zm1.264 0c-6e-3 -0.0025-0.0161-0.0025-0.0223 0-6e-3 0.0025-1e-3 0.0045 0.0111 0.0045 0.0122 0 0.0172-2e-3 0.0111-0.0045zm-1.3042-0.0084c-3e-3 -3e-3 -0.0106-0.0033-0.0171-7.03e-4 -7e-3 0.0028-5e-3 5e-3 5e-3 0.0054 9e-3 3.87e-4 0.0146-0.0017 0.0117-0.0047zm1.3488-5.18e-4c-6e-3 -0.0025-0.0161-0.0025-0.0222 0-6e-3 0.0025-1e-3 0.0045 0.0111 0.0045 0.0122 0 0.0172-2e-3 0.0111-0.0045zm-1.3886-0.0089c-6e-3 -0.0025-0.0161-0.0025-0.0222 0-6e-3 0.0025-1e-3 0.0045 0.0111 0.0045 0.0122 0 0.0172-2e-3 0.0111-0.0045zm1.4285 5.18e-4c-3e-3 -3e-3 -0.0106-0.0033-0.0171-7.03e-4 -7e-3 0.0028-5e-3 5e-3 5e-3 0.0054 9e-3 3.87e-4 0.0146-0.0017 0.0117-0.0047zm0.50089-0.0035c7e-3 -0.0047 9e-3 -0.0086 4e-3 -0.0086s-0.0149 0.0039-0.0222 0.0086c-7e-3 0.0047-9e-3 0.0086-4e-3 0.0086s0.0149-0.0039 0.0223-0.0086zm-1.9696-0.0054c-3e-3 -3e-3 -0.0106-0.0033-0.0171-7.03e-4 -7e-3 0.0028-5e-3 5e-3 5e-3 0.0054 9e-3 3.87e-4 0.0147-0.0017 0.0117-0.0047zm1.5468-0.0077c0.0478-0.01575 0.029-0.01637-0.0267-8.75e-4 -0.0245 0.0068-0.0365 0.01243-0.0267 0.0125 0.01 6.7e-5 0.0338-0.0052 0.0534-0.01162zm0.36941 0.0042c7e-3 -0.0047 9e-3 -0.0086 4e-3 -0.0086s-0.0149 0.0039-0.0223 0.0086c-7e-3 0.0047-9e-3 0.0086-4e-3 0.0086s0.0149-0.0039 0.0223-0.0086zm-1.9518-0.0054c-3e-3 -3e-3 -0.0106-0.0033-0.0171-7.03e-4 -7e-3 0.0028-5e-3 5e-3 5e-3 0.0054 9e-3 3.87e-4 0.0146-0.0017 0.0117-0.0047zm2.0497-0.0035c7e-3 -0.0047 9e-3 -0.0086 4e-3 -0.0086s-0.0149 0.0039-0.0222 0.0086c-7e-3 0.0047-9e-3 0.0086-4e-3 0.0086s0.0149-0.0039 0.0223-0.0086zm-2.0963-0.0089c-0.01-0.0042-0.0238-0.0076-0.0312-0.0076-8e-3 0-7e-3 0.0028 4e-3 0.0076 0.01 0.0042 0.0238 0.0077 0.0312 0.0077 8e-3 0 7e-3 -0.0028-4e-3 -0.0077zm1.6933-0.0054c-3e-3 -3e-3 -0.0106-0.0033-0.0171-7.03e-4 -7e-3 0.0028-5e-3 5e-3 5e-3 0.0054 9e-3 3.86e-4 0.0146-0.0017 0.0117-0.0047zm0.37627-0.0035c7e-3 -0.0047 9e-3 -0.0086 4e-3 -0.0086s-0.0149 0.0039-0.0223 0.0086c-7e-3 0.0047-9e-3 0.0086-4e-3 0.0086s0.0149-0.0039 0.0223-0.0086zm0.0712 0c7e-3 -0.0047 9e-3 -0.0086 4e-3 -0.0086s-0.0149 0.0039-0.0222 0.0086c-7e-3 0.0047-9e-3 0.0086-4e-3 0.0086s0.0149-0.0039 0.0223-0.0086zm-2.2031-0.0089c-0.01-0.0042-0.0238-0.0076-0.0312-0.0076-8e-3 0-7e-3 0.0028 4e-3 0.0076 0.01 0.0042 0.0238 0.0077 0.0312 0.0077 8e-3 0 7e-3 -0.0028-4e-3 -0.0077zm1.8504-0.01435c0.0232-0.0079 0.0406-0.01589 0.0387-0.01778-2e-3 -0.0019-0.0251 0.0043-0.0517 0.0137-0.0265 0.0094-0.044 0.01742-0.0387 0.01777 5e-3 3.57e-4 0.0285-0.0058 0.0517-0.0137zm0.36125-0.0092c0.0298-0.01293 0.0527-0.02503 0.0508-0.02688-2e-3 -0.0019-0.029 0.0084-0.0603 0.02285-0.0711 0.03274-0.0639 0.03582 9e-3 4e-3zm0.0805-0.0076c0.022-0.0118 0.036-0.02145 0.0312-0.02145-5e-3 0-0.0269 0.0097-0.049 0.02145-0.022 0.0118-0.036 0.02145-0.0312 0.02145 5e-3 0 0.0269-0.0097 0.049-0.02145zm-0.29392-0.03676c0.0347-0.01287 0.0616-0.02494 0.0597-0.02682-3e-3 -0.0034-0.12285 0.03939-0.13002 0.04653-8e-3 0.0077 9e-3 3e-3 0.0703-0.01971zm-2.1896 0.0056c-7e-3 -0.0047-0.0173-0.0086-0.0222-0.0086-5e-3 0-3e-3 0.0039 4e-3 0.0086s0.0174 0.0086 0.0223 0.0086c5e-3 0 3e-3 -0.0039-4e-3 -0.0086zm2.6047-0.05752c0.48556-0.25551 0.89686-0.62708 1.2025-1.0863 0.21456-0.32243 0.37962-0.68936 0.46939-1.0435 0.0126-0.04962 0.0226-0.0955 0.0222-0.10195-3.5e-4 -0.0065-0.0163 0.0472-0.0354 0.11924-0.0635 0.23951-0.18071 0.53373-0.29789 0.74802-0.32506 0.59448-0.78468 1.0514-1.3662 1.3583-0.0661 0.03488-0.1165 0.06348-0.11201 0.06355 4e-3 6.7e-5 0.0574-0.02574 0.11747-0.05738zm5e-3 0.03023c0.0297-0.01501 0.0524-0.02898 0.0503-0.03104-2e-3 -0.0021-0.0295 0.01012-0.061 0.02708-0.0709 0.03819-0.0629 0.04112 0.0107 4e-3zm-2.725-0.01722c-7e-3 -0.0047-0.0174-0.0086-0.0223-0.0086-5e-3 0-3e-3 0.0039 4e-3 0.0086s0.0174 0.0086 0.0223 0.0086c5e-3 0 3e-3 -0.0039-4e-3 -0.0086zm2.4949-0.04046c0.0598-0.02715 0.11259-0.05324 0.11733-0.05798 8e-3 -0.0077-0.22565 0.09564-0.23477 0.10395-0.0117 0.01062 0.0205-2e-3 0.11744-0.045971zm-2.5572 0.01375c-7e-3 -0.0047-0.0174-0.0086-0.0223-0.0086-5e-3 0-3e-3 0.0039 4e-3 0.0086s0.0174 0.0086 0.0223 0.0086c5e-3 0 3e-3 -0.0039-4e-3 -0.0086zm2.9019-0.02271c0-0.0024-0.012 0.0018-0.0267 0.0094s-0.0267 0.01581-0.0267 0.01826c0 0.0024 0.012-0.0018 0.0267-0.0094s0.0267-0.01581 0.0267-0.01826zm-2.9909-0.01735c-0.0122-7e-3 -0.0263-0.01272-0.0311-0.01272-5e-3 0 1e-3 0.0057 0.0133 0.01272 0.0122 7e-3 0.0263 0.01272 0.0312 0.01272 5e-3 0-1e-3 -0.0057-0.0134-0.01272zm3.1778-0.09782c0.18679-0.12219 0.2926-0.20882 0.48839-0.39986 0.42205-0.4118 0.73826-0.96168 0.89625-1.5586 0.0169-0.06365 0.0304-0.12173 0.03-0.12907-3.4e-4 -0.0073-0.0161 0.04473-0.035 0.11572-0.23246 0.87146-0.76931 1.6013-1.502 2.0419-0.0306 0.0184-0.0556 0.03549-0.0556 0.03799 0 0.0062 0.0465-0.02208 0.17803-0.10809zm-3.2223 0.08014c0-0.0024-0.024-0.01646-0.0534-0.03128-0.0294-0.01483-0.0534-0.02496-0.0534-0.02252 0 0.0024 0.023 0.01632 0.0512 0.03085 0.0573 0.02957 0.0556 0.02889 0.0556 0.02295zm3.0977-0.18644c0.51505-0.33897 0.92234-0.81312 1.1794-1.3731 0.0586-0.12762 0.14749-0.35803 0.14618-0.37888-3.9e-4 -0.0061-5e-3 8.44e-4 -0.01 0.01553-0.22104 0.63942-0.57867 1.1547-1.083 1.5604-0.10584 0.08513-0.32326 0.23161-0.43078 0.29022-0.0428 0.02333-0.0778 0.04446-0.0778 0.04695 0 0.0097 0.14465-0.07472 0.27594-0.16113zm-3.2312 0.11541c0-0.0023-9e-3 -0.0085-0.02-0.01384-0.0192-0.0093-0.0194-0.0092-3e-3 0.0041 0.0182 0.01455 0.0228 0.01652 0.0228 0.0097zm-0.29374-0.18615c0-0.0018-7e-3 -0.0089-0.0156-0.01558-0.0141-0.01107-0.0144-0.01076-3e-3 0.0034 0.0116 0.01483 0.0189 0.01954 0.0189 0.01222zm-0.0356-0.0267c0-0.0018-7e-3 -0.0089-0.0156-0.01558-0.0141-0.01107-0.0144-0.01076-3e-3 0.0034 0.0116 0.01483 0.0189 0.01954 0.0189 0.01222zm-0.0356-0.02641c0-0.0017-9e-3 -0.0107-0.02-0.02003l-0.02-0.01696 0.017 0.02003c0.0159 0.01882 0.0231 0.02408 0.0231 0.01696zm-0.0445-0.03624c0-2e-3 -0.017-0.01643-0.0378-0.032l-0.0378-0.0283 0.0356 0.03187c0.036 0.03224 0.0401 0.0351 0.0401 0.02843zm-0.089-0.07041c0-0.0016-0.011-0.01261-0.0245-0.02448l-0.0245-0.02158 0.0216 0.02448c0.0202 0.02288 0.0274 0.02856 0.0274 0.02158zm-0.0534-0.04417c0-0.0014-0.021-0.02244-0.0467-0.04673l-0.0467-0.04417 0.0442 0.04673c0.041 0.04342 0.0493 0.05082 0.0493 0.04417zm-0.12463-0.11564c0-0.0014-0.027-0.0284-0.0601-0.06009l-0.0601-0.0576 0.0576 0.06009c0.0535 0.05581 0.0626 0.06415 0.0626 0.0576zm3.351-0.09457c0.0661-0.03253 0.11345-0.08153 0.14608-0.15112l0.0235-0.05003 3e-3 -0.40724 3e-3 -0.40724-0.23673 9e-6v0.39388c0 0.44147 2.1e-4 0.44002-0.0614 0.46034-0.068 0.02243-0.12109-0.03002-0.12109-0.11958 0-0.03814-1e-3 -0.04033-0.0245-0.04006-0.0356 4.11e-4 -0.19912 0.02452-0.2048 0.03019-3e-3 0.0027-7e-5 0.03369 6e-3 0.06898 0.0228 0.13813 0.0959 0.21278 0.24576 0.25112 0.01 0.0025 0.0511 0.0032 0.0918 0.0015 0.0611-0.0025 0.0838-0.0079 0.13034-0.03077zm-2.2472-0.17444v-0.18248l0.1112 5.38e-4 0.168 0.36445h0.12736c0.0701 0 0.12737-0.0015 0.12737-0.0033s-0.044-0.09424-0.0979-0.20543l-0.0979-0.20217 0.0475-0.04344c0.0317-0.02896 0.0562-0.06211 0.0734-0.09944 0.0231-0.05 0.0259-0.06554 0.0259-0.14502 0-0.07886-3e-3 -0.0946-0.0242-0.13797-0.0361-0.07325-0.0727-0.1119-0.13416-0.14197-0.08-0.03912-0.12691-0.04496-0.3614-0.04496l-0.2102-2e-6 2e-3 0.51183 2e-3 0.51183h0.24005zm0-0.48936v-0.13972l0.10146 3e-3c0.11079 0.0033 0.12569 0.0095 0.1543 0.06485 0.0175 0.03394 0.0168 0.11094-2e-3 0.14626-0.0249 0.04809-0.0511 0.0584-0.15804 0.06206l-0.0962 0.0033zm0.9814 0.51385c-1e-3 -0.08691-3e-3 -0.23293-4e-3 -0.32449-1e-3 -0.09156 3e-4 -0.16366 3e-3 -0.16023 3e-3 0.0034 0.0811 0.14946 0.17335 0.32448l0.16768 0.31823h0.24524v-1.0237h-0.22516l6e-3 0.31378 6e-3 0.31378-0.12064-0.22254c-0.0664-0.1224-0.14162-0.26358-0.16725-0.31374l-0.0466-0.0912-0.25369-6.8e-5v1.0237l0.21809 2.3e-5zm-2.2543 0.06452c-0.0216-0.02203-0.0413-0.04006-0.0438-0.04006-2e-3 0 0.0132 0.01803 0.0349 0.04006 0.0216 0.02203 0.0413 0.04006 0.0438 0.04006 2e-3 0-0.0132-0.01802-0.0349-0.04006zm-0.0534-0.06093c0-0.0017-9e-3 -0.0107-0.02-0.02003l-0.02-0.01696 0.017 0.02003c0.0159 0.01882 0.0231 0.02408 0.0231 0.01696zm-0.0445-0.05341c0-0.0017-9e-3 -0.0107-0.02-0.02003l-0.02-0.01696 0.0169 0.02003c0.0159 0.01882 0.0231 0.02408 0.0231 0.01696zm-0.0445-0.0537c0-0.0018-7e-3 -0.0089-0.0156-0.01558-0.0141-0.01107-0.0144-0.01076-3e-3 0.0034 0.0116 0.01483 0.0189 0.01954 0.0189 0.01222zm1.9936-1.0537c0.0441-0.19786 0.16595-0.42057 0.33243-0.60752 0.0414-0.04651 0.13771-0.14202 0.21399-0.21225 0.38007-0.34994 0.52761-0.55789 0.60023-0.84602 0.021-0.08338 0.0238-0.1117 0.0239-0.24134 7e-5 -0.19389-0.0274-0.31449-0.10828-0.47623-0.16324-0.32624-0.43637-0.54265-0.80303-0.63627-0.0387-0.0099-0.0806-0.01799-0.093-0.01799-0.0218 0-0.0209 0.0024 0.0282 0.07089 0.10361 0.14466 0.19362 0.32773 0.23498 0.47794 0.0288 0.10476 0.0289 0.32421 1e-5 0.42973-0.0615 0.22508-0.19453 0.40286-0.48686 0.65062-0.29964 0.25395-0.39172 0.35085-0.49267 0.51847-0.13372 0.22202-0.19675 0.493-0.17183 0.73878 6e-3 0.05606 0.0149 0.12452 0.0204 0.15214l0.0101 0.05022h0.68012zm1.3502-0.06707c0.18051-0.18592 0.28299-0.33808 0.34502-0.51226 0.0981-0.27552 0.0642-0.56747-0.0972-0.8364-0.0417-0.06955-0.14717-0.21494-0.15612-0.21527-3e-3 -1.01e-4 -3e-3 0.01403-1e-3 0.0314 6e-3 0.05295-0.0154 0.22193-0.0389 0.30441-0.0415 0.14552-0.14073 0.3268-0.25974 0.47433-0.0298 0.03688-0.1232 0.13902-0.20765 0.22699-0.24185 0.25189-0.33249 0.36886-0.43952 0.56717l-0.042 0.07789h0.78251zm2.2184 0.04704c0-0.0084-3e-3 -0.0068-8e-3 0.0045-4e-3 0.0098-8e-3 0.02381-8e-3 0.03115 0 0.0084 3e-3 0.0068 8e-3 -0.0045 4e-3 -0.0098 8e-3 -0.02381 8e-3 -0.03115zm0.0224-0.08011c4e-3 -0.02139 3e-3 -0.02557-2e-3 -0.01335-4e-3 0.0098-0.0103 0.03182-0.0134 0.04896-4e-3 0.02139-3e-3 0.02557 2e-3 0.01335 4e-3 -0.0098 0.0103-0.03182 0.0134-0.04896zm0.0313-0.13352c-3.5e-4 -0.0073-6e-3 0.0067-0.013 0.03116-7e-3 0.02448-0.0121 0.05052-0.0118 0.05786 3.4e-4 0.0073 6e-3 -0.0067 0.013-0.03116 7e-3 -0.02448 0.0121-0.05052 0.0118-0.05786zm0.12258 0.0067c-2e-3 -0.0061-4e-3 -0.0011-4e-3 0.01113 0 0.01224 2e-3 0.01725 4e-3 0.01113 2e-3 -0.0061 2e-3 -0.01613 0-0.02225zm0.0267-0.0089c-2e-3 -0.0061-4e-3 -0.0011-4e-3 0.01113 0 0.01224 2e-3 0.01725 4e-3 0.01113 2e-3 -0.0061 2e-3 -0.01613 0-0.02225zm-6.8183-0.01725c-3e-3 -0.0071-5e-3 -5e-3 -5e-3 0.0054-3.9e-4 0.0094 2e-3 0.01464 5e-3 0.01168 3e-3 -3e-3 3e-3 -0.01064 7.1e-4 -0.01706zm6.8007-0.0089c-3e-3 -0.0071-5e-3 -5e-3 -5e-3 0.0054-3.9e-4 0.0094 2e-3 0.01464 5e-3 0.01168 3e-3 -3e-3 3e-3 -0.01064 7.1e-4 -0.01706zm-0.12481-0.01836c-2e-3 -0.0061-4e-3 -0.0011-4e-3 0.01113 0 0.01224 2e-3 0.01725 4e-3 0.01113 2e-3 -0.0061 2e-3 -0.01613 0-0.02225zm0.15132 0c-2e-3 -0.0061-4e-3 -0.0011-4e-3 0.01113 0 0.01224 2e-3 0.01725 4e-3 0.01113 2e-3 -0.0061 2e-3 -0.01613 0-0.02225zm-6.8361-0.01725c-3e-3 -0.0071-5e-3 -5e-3 -5e-3 0.0054-3.9e-4 0.0094 2e-3 0.01464 5e-3 0.01168 3e-3 -3e-3 3e-3 -0.01064 7.1e-4 -0.01706zm6.8185-0.0089c-3e-3 -0.0071-5e-3 -5e-3 -5e-3 0.0054-3.9e-4 0.0094 2e-3 0.01464 5e-3 0.01168 3e-3 -3e-3 3e-3 -0.01064 7.1e-4 -0.01706zm-0.11484-0.05174c-1.4e-4 -0.01999-8.6e-4 -0.01954-7e-3 0.0045-4e-3 0.01469-7e-3 0.03472-7e-3 0.04451-1.4e-4 0.01395 1e-3 0.01299 7e-3 -0.0044 4e-3 -0.01224 7e-3 -0.03227 7e-3 -0.04451zm0.14154 0.04284c-3e-3 -0.0071-5e-3 -5e-3 -5e-3 0.0054-3.8e-4 0.0094 2e-3 0.01464 5e-3 0.01168 3e-3 -3e-3 3e-3 -0.01064 7e-4 -0.01706zm-6.8543-0.03616c-2e-3 -0.0061-4e-3 -0.0011-4e-3 0.01113 0 0.01224 2e-3 0.01725 4e-3 0.01113 2e-3 -0.0061 2e-3 -0.01613 0-0.02225zm6.8365 5.55e-4c-3e-3 -0.0071-5e-3 -5e-3 -5e-3 0.0054-3.9e-4 0.0094 2e-3 0.01464 5e-3 0.01168 3e-3 -3e-3 3e-3 -0.01064 7e-4 -0.01706zm0.0265-0.01836c-2e-3 -0.0061-4e-3 -0.0011-4e-3 0.01113 0 0.01224 2e-3 0.01725 4e-3 0.01113 2e-3 -0.0061 2e-3 -0.01613 0-0.02225zm-6.8716-0.03989c-2e-3 -0.0087-4e-3 -0.0037-4e-3 0.01096-1.7e-4 0.01469 2e-3 0.02177 4e-3 0.01575 2e-3 -6e-3 3e-3 -0.01804 3.4e-4 -0.0267zm6.7295-0.0089c-2e-3 -0.0087-4e-3 -0.0037-4e-3 0.01096-1.6e-4 0.01469 2e-3 0.02177 4e-3 0.01575 2e-3 -6e-3 3e-3 -0.01804 3.3e-4 -0.0267zm0.12453 0.01374c-3e-3 -0.0071-5e-3 -5e-3 -5e-3 0.0054-3.9e-4 0.0094 2e-3 0.01464 5e-3 0.01168 3e-3 -3e-3 3e-3 -0.01064 7e-4 -0.01706zm0.0265-0.01836c-2e-3 -0.0061-4e-3 -0.0011-4e-3 0.01113 0 0.01224 2e-3 0.01725 4e-3 0.01113 2e-3 -0.0061 2e-3 -0.01613 0-0.02225zm-6.8895-0.05786c-2e-3 -0.0086-4e-3 -0.0016-4e-3 0.01558 0 0.01714 2e-3 0.02415 4e-3 0.01558 2e-3 -0.0086 2e-3 -0.02259 0-0.03116zm6.7473 0c-2e-3 -0.0086-4e-3 -0.0016-4e-3 0.01558 0 0.01714 2e-3 0.02415 4e-3 0.01558 2e-3 -0.0086 2e-3 -0.02259 0-0.03116zm0.12456 0.01391c-3e-3 -0.0071-5e-3 -5e-3 -5e-3 0.0054-3.8e-4 0.0094 2e-3 0.01464 5e-3 0.01168 3e-3 -3e-3 3e-3 -0.01064 7e-4 -0.01706zm-0.1155-0.08057c-2e-3 -0.01107-4e-3 -0.0041-4e-3 0.01547-1e-4 0.01958 2e-3 0.02864 4e-3 0.02013 2e-3 -0.0085 2e-3 -0.02453 1.7e-4 -0.03561zm-6.7652-0.0046c-2e-3 -0.0086-4e-3 -0.0016-4e-3 0.01558 0 0.01713 2e-3 0.02415 4e-3 0.01558 2e-3 -0.0086 2e-3 -0.02259 0-0.03115zm6.7742-0.07999c-2e-3 -0.01353-4e-3 -0.0046-4e-3 0.01991-7e-5 0.02448 2e-3 0.03555 4e-3 0.0246s2e-3 -0.03098 1.3e-4 -0.04451zm-6.7828-0.04002c-2e-3 -0.016-4e-3 -0.0051-4e-3 0.02432-4e-5 0.02937 2e-3 0.04246 4e-3 0.02909s2e-3 -0.03741 1e-4 -0.05341zm6.7917-0.06692c-2e-3 -0.01346-4e-3 -0.0024-4e-3 0.02448 0 0.02693 2e-3 0.03794 4e-3 0.02448s2e-3 -0.03549 0-0.04896zm-6.8186 0.0046c-2e-3 -0.01107-4e-3 -0.0041-4e-3 0.01547-1e-4 0.01958 2e-3 0.02864 4e-3 0.02013 2e-3 -0.0085 2e-3 -0.02453 1.7e-4 -0.03561zm0.0373-0.59872c0.0645-0.51762 0.17727-0.90483 0.37963-1.3041 0.27093-0.53454 0.69567-1.014 1.2058-1.3612 0.39626-0.26969 0.78789-0.43469 1.2685-0.53441 0.24612-0.05107 0.42165-0.07058 0.72546-0.08064l0.21809-0.0072-0.23589 0.0033c-0.32191 0.0045-0.52295 0.02843-0.82783 0.09848-0.25466 0.05851-0.58328 0.17955-0.79935 0.2944-0.0507 0.02694-0.094 0.04712-0.0962 0.04486-2e-3 -0.0023 0.0281-0.02086 0.0674-0.04133s0.0715-0.03916 0.0715-0.04153c0-0.0024-7e-3 -7.09e-4 -0.0156 0.0037-9e-3 0.0044-0.0427 0.02083-0.0759 0.0365-0.0414 0.01953-0.0596 0.03291-0.0579 0.04256 1e-3 0.0077-3e-3 0.01601-0.01 0.01838-8e-3 0.0028-0.01 4.6695e-4 -6e-3 -0.0066 5e-3 -0.0085 3e-3 -0.0087-0.0124-7.08e-4 -0.0105 0.0056-0.0169 0.01384-0.0142 0.01824 3e-3 0.0044-3e-3 0.01221-0.0125 0.01736-0.0212 0.01133-0.0302 0.01198-0.0239 0.0017 3e-3 -0.0042-5e-3 -0.0057-0.0172-0.0034-0.012 0.0023-0.0198 0.0076-0.0172 0.01168 3e-3 0.0041 0.0115 0.0053 0.0199 0.0027 0.0127-4e-3 0.0123-0.0024-2e-3 0.0093-0.0183 0.01495-0.0358 0.01908-0.0281 0.0067 3e-3 -0.0041-1e-3 -0.0074-8e-3 -0.0074-9e-3 0-0.0101 0.0033-4e-3 0.01053 6e-3 0.0076-0.0167 0.02738-0.0825 0.07102-0.0502 0.03327-0.10581 0.07193-0.12365 0.08591-0.0178 0.01398-0.0357 0.02542-0.0397 0.02542-0.0108 0 0.0501-0.0513 0.0811-0.06831 0.0156-0.0086 0.022-0.01627 0.0154-0.0185-0.0112-0.0038-0.0999 0.05818-0.0999 0.06982 0 0.0033-0.0148 0.01307-0.0329 0.02165-0.05 0.02375-0.20274 0.15909-0.38604 0.34217-0.42487 0.42437-0.68759 0.8442-0.87753 1.4023-0.0634 0.18638-0.15162 0.55848-0.14297 0.60325 3e-3 0.01673 4e-3 0.01599 5e-3 -0.0047 2e-3 -0.04344 0.0642-0.31884 0.0998-0.44276 0.0363-0.12662 0.0904-0.28028 0.14558-0.41392 0.0339-0.08211 0.17358-0.35841 0.21218-0.41975 0.0119-0.01882 0.039-0.06227 0.0604-0.09654 0.0563-0.09035 0.11679-0.17504 0.12156-0.17026 2e-3 0.0023-0.0214 0.04151-0.0526 0.0872-0.28023 0.40998-0.48018 0.91165-0.56706 1.4227-0.0382 0.2248-0.0473 0.33715-0.0497 0.6142l-2e-3 0.27149 7e-3 -0.26704c4e-3 -0.14687 0.0113-0.30309 0.0168-0.34716zm0.65074-1.7879c0-6e-3 0.0669-0.09085 0.16958-0.21492 0.0803-0.09702 0.18854-0.20948 0.32291-0.3354 0.13819-0.1295 0.28771-0.25373 0.29573-0.24571 2e-3 0.0022-0.029 0.02962-0.0694 0.06086-0.21533 0.16649-0.42656 0.37859-0.62714 0.62972-0.0881 0.11034-0.0917 0.11442-0.0917 0.10545zm6.1397 2.0399c-2e-3 -0.05535-3e-3 -0.01251-3e-3 0.0952-1e-5 0.10771 1e-3 0.15299 3e-3 0.10063 2e-3 -0.05236 2e-3 -0.14048 1e-5 -0.19583zm-6.8363 0.06627c-2e-3 -0.03305-3e-3 -6e-3 -3e-3 0.06009s1e-3 0.09313 3e-3 0.06009c2e-3 -0.03305 2e-3 -0.08712 0-0.12017zm0.032-0.41169c5e-3 -0.06328 4e-3 -0.06235-7e-3 0.0178-7e-3 0.04651-0.0143 0.13063-0.0168 0.18693l-5e-3 0.10237 0.0118-0.12017c6e-3 -0.06609 0.014-0.15021 0.0169-0.18693zm6.795 0.158c-2e-3 -0.01102-4e-3 -2e-3 -4e-3 0.02003s2e-3 0.03104 4e-3 0.02003c2e-3 -0.01102 2e-3 -0.02904 0-0.04006zm-9e-3 -0.08891c-2e-3 -0.01107-4e-3 -0.0041-4e-3 0.01547-1e-4 0.01958 2e-3 0.02864 4e-3 0.02013 2e-3 -0.0085 2e-3 -0.02453 1.7e-4 -0.03561zm-9e-3 -0.0756c-2e-3 -0.0087-4e-3 -0.0037-4e-3 0.01096-1.7e-4 0.01469 2e-3 0.02177 4e-3 0.01575 2e-3 -6e-3 3e-3 -0.01804 3.4e-4 -0.0267zm-9e-3 -0.06231c-2e-3 -0.0087-4e-3 -0.0037-4e-3 0.01096-1.7e-4 0.01469 2e-3 0.02177 4e-3 0.01575 2e-3 -6e-3 3e-3 -0.01804 3.4e-4 -0.0267zm-6.7562-0.03561c-2e-3 -0.0087-4e-3 -0.0037-4e-3 0.01096-1.6e-4 0.01469 2e-3 0.02177 4e-3 0.01575 2e-3 -6e-3 3e-3 -0.01804 3.3e-4 -0.0267zm6.7472-0.02187c-3e-3 -0.0071-5e-3 -5e-3 -5e-3 0.0054-3.9e-4 0.0094 2e-3 0.01464 5e-3 0.01168 3e-3 -3e-3 3e-3 -0.01064 7e-4 -0.01706zm-1.7187-1.1947c0.0254-0.02538 0.0303-0.03668 0.0303-0.07001 0-0.072-0.0621-0.11765-0.12976-0.09533-0.0808 0.02667-0.0874 0.14885-0.01 0.18258 0.0476 0.02068 0.0759 0.01621 0.10935-0.01724zm-0.22097-0.20121c0.0929-0.05663 0.0344-0.20331-0.073-0.18316-0.0601 0.01127-0.092 0.07855-0.0677 0.14256 0.0103 0.02716 0.0581 0.05838 0.0892 0.05838 0.0122 0 0.0354-8e-3 0.0514-0.01777zm0.40286 0.0043c0.0709-0.03667 0.0688-0.14237-3e-3 -0.17668-0.0397-0.01884-0.0573-0.01831-0.0919 0.0028-0.0344 0.02096-0.0491 0.04643-0.0491 0.08501s0.0147 0.06405 0.0491 0.08501c0.0342 0.02083 0.0605 0.02189 0.0954 0.0039zm-0.20513-0.21343c0.0353-0.01823 0.0535-0.04704 0.0535-0.08437-1e-4 -0.09863-0.11795-0.14132-0.1783-0.0646-0.0351 0.04458-0.0139 0.12638 0.0387 0.14924 0.0368 0.01602 0.0547 0.01596 0.0861-2.73e-4zm-2.783-1.2116c0.0253-0.01185 0.0359-0.01908 0.0237-0.01607-0.0122 3e-3 -0.0423 0.01505-0.0668 0.02675s-0.0351 0.01893-0.0237 0.01607c0.0114-0.0029 0.0415-0.0149 0.0668-0.02675zm0.45824-0.14752c0.0162-5e-3 0.0282-0.01033 0.0266-0.01191-4e-3 -0.0037-0.11697 0.0224-0.12287 0.02837-6e-3 0.0061 0.059-5e-3 0.0962-0.01646zm0.10528-0.03214c-9e-3 -0.0019-0.0204 3.81e-4 -0.0252 0.0051-6e-3 0.0056 2.7e-4 0.0068 0.0165 0.0035 0.0186-0.0038 0.0209-6e-3 9e-3 -0.0086zm0.0846-0.01185c0.0257-0.0055 0.107-0.01916 0.1807-0.03033s0.12069-0.02068 0.10446-0.02114c-0.0356-9.95e-4 -0.2359 0.03011-0.30428 0.04725-0.0597 0.01497-0.0456 0.01809 0.0191 0.0042zm1.3315-0.01316c-3e-3 -3e-3 -0.0106-0.0033-0.0171-7.02e-4 -7e-3 0.0028-5e-3 5e-3 5e-3 0.0054 9e-3 3.86e-4 0.0146-0.0017 0.0117-0.0047zm-0.12871-0.01826c-6e-3 -0.0024-0.018-0.0026-0.0267-3.3e-4 -9e-3 0.0023-4e-3 0.0043 0.011 0.0044 0.0147 1.82e-4 0.0218-0.0017 0.0157-0.0041zm-0.0846-0.0092c-9e-3 -0.0022-0.0245-0.0023-0.0356-1.78e-4 -0.0111 0.0021-4e-3 4e-3 0.0155 0.0041 0.0196 9.7e-5 0.0287-0.0016 0.0201-0.0039zm-0.0935-0.0091c-0.0109-0.0021-0.031-0.0022-0.0445-1.21e-4 -0.0135 2e-3 -5e-3 0.0038 0.0199 0.0038 0.0245 6.7e-5 0.0356-0.0016 0.0246-0.0037zm-0.63657-9e-3c-0.0135-2e-3 -0.0355-2e-3 -0.049 0s-2e-3 0.0037 0.0245 0.0037c0.0269 0 0.0379-0.0017 0.0245-0.0037zm0.10248-0.0088c-0.0109-0.0021-0.031-0.0022-0.0445-1.21e-4 -0.0135 2e-3 -5e-3 0.0038 0.0199 0.0038 0.0245 6.8e-5 0.0356-0.0016 0.0246-0.0037zm0.14699-0.0091c-0.0182-0.0019-0.0503-0.0019-0.0712-5.7e-5 -0.0209 0.0019-6e-3 0.0034 0.0331 0.0035 0.0392 3.3e-5 0.0563-0.0015 0.0381-0.0034z" style="mix-blend-mode:normal"/></svg>
